<svg width="15" height="16" viewBox="0 0 15 16" fill="none" xmlns="http://www.w3.org/2000/svg">
<g clip-path="url(#clip0_21_2876)">
<path d="M4.28516 6.86475H4.82087" stroke="#A9A9A9" stroke-width="1.5" stroke-linecap="round" stroke-linejoin="round"/>
<path d="M4.28516 10.0791H4.82087" stroke="#A9A9A9" stroke-width="1.5" stroke-linecap="round" stroke-linejoin="round"/>
<path d="M7.23242 6.86475H7.76814" stroke="#A9A9A9" stroke-width="1.5" stroke-linecap="round" stroke-linejoin="round"/>
<path d="M10.1787 6.86475H10.7144" stroke="#A9A9A9" stroke-width="1.5" stroke-linecap="round" stroke-linejoin="round"/>
<path d="M7.23242 10.0791H7.76814" stroke="#A9A9A9" stroke-width="1.5" stroke-linecap="round" stroke-linejoin="round"/>
<path d="M1.28343 11.6595C1.45593 13.2023 2.7095 14.4259 4.25986 14.5009C5.33129 14.5523 6.42522 14.5791 7.61343 14.5791C8.80165 14.5791 9.89557 14.5523 10.967 14.5009C12.5174 14.4259 13.7709 13.2013 13.9434 11.6595C14.0602 10.6202 14.1556 9.55627 14.1556 8.47198C14.1556 7.38663 14.0591 6.3227 13.9434 5.28341C13.7709 3.74056 12.5174 2.51698 10.967 2.44198C9.89557 2.39056 8.80165 2.36377 7.61343 2.36377C6.42522 2.36377 5.33129 2.39056 4.25986 2.44198C2.7095 2.51698 1.45593 3.74163 1.28343 5.28341C1.16665 6.3227 1.07129 7.38663 1.07129 8.47198C1.07129 9.55627 1.16772 10.6213 1.28343 11.6595Z" stroke="#A9A9A9" stroke-width="1.5" stroke-linecap="round" stroke-linejoin="round"/>
<path d="M4.55664 1.18604V3.86461" stroke="#A9A9A9" stroke-width="1.5" stroke-linecap="round" stroke-linejoin="round"/>
<path d="M10.4463 1.18604V3.86461" stroke="#A9A9A9" stroke-width="1.5" stroke-linecap="round" stroke-linejoin="round"/>
</g>
<defs>
<clipPath id="clip0_21_2876">
<rect width="15" height="15" fill="white" transform="translate(0 0.382324)"/>
</clipPath>
</defs>
</svg>
