<svg width="17" height="16" viewBox="0 0 17 16" fill="none" xmlns="http://www.w3.org/2000/svg">
<g clip-path="url(#clip0_21_2277)">
<path d="M15.9124 7.13842C16.1019 7.37467 16.2068 7.68161 16.2068 7.99986C16.2068 8.31811 16.1019 8.62505 15.9124 8.8613C14.7124 10.3142 11.9809 13.1428 8.79238 13.1428C5.60381 13.1428 2.87238 10.3142 1.67237 8.8613C1.48284 8.62505 1.37793 8.31811 1.37793 7.99986C1.37793 7.68161 1.48284 7.37467 1.67237 7.13842C2.87238 5.68554 5.60381 2.85693 8.79238 2.85693C11.9809 2.85693 14.7124 5.68554 15.9124 7.13842Z" stroke="black" stroke-width="1.5" stroke-linecap="round" stroke-linejoin="round"/>
<path d="M8.79255 10.2853C10.0549 10.2853 11.0783 9.26195 11.0783 7.99958C11.0783 6.73722 10.0549 5.71387 8.79255 5.71387C7.53018 5.71387 6.50684 6.73722 6.50684 7.99958C6.50684 9.26195 7.53018 10.2853 8.79255 10.2853Z" stroke="black" stroke-width="1.5" stroke-linecap="round" stroke-linejoin="round"/>
</g>
<defs>
<clipPath id="clip0_21_2277">
<rect width="16" height="16" fill="white" transform="translate(0.79248)"/>
</clipPath>
</defs>
</svg>
