<svg width="25" height="25" viewBox="0 0 25 25" fill="none" xmlns="http://www.w3.org/2000/svg">
<g clip-path="url(#clip0_21_3706)" filter="url(#filter0_d_21_3706)">
<path d="M19.8856 12.7681V15.0538C19.8856 15.3569 19.7651 15.6476 19.5509 15.8619C19.3366 16.0762 19.0458 16.1966 18.7427 16.1966H16.457" stroke="#3800F1" stroke-width="1.5" stroke-linecap="round" stroke-linejoin="round"/>
<path d="M16.457 1.3396H18.7427C19.0458 1.3396 19.3366 1.46001 19.5509 1.67433C19.7651 1.88866 19.8856 2.17935 19.8856 2.48246V4.76817" stroke="#3800F1" stroke-width="1.5" stroke-linecap="round" stroke-linejoin="round"/>
<path d="M5.02844 4.76817V2.48246C5.02844 2.17935 5.14885 1.88866 5.36318 1.67433C5.57751 1.46001 5.86819 1.3396 6.1713 1.3396H8.45701" stroke="#3800F1" stroke-width="1.5" stroke-linecap="round" stroke-linejoin="round"/>
<path d="M8.45701 16.1966H6.1713C5.86819 16.1966 5.57751 16.0762 5.36318 15.8619C5.14885 15.6476 5.02844 15.3569 5.02844 15.0538V12.7681" stroke="#3800F1" stroke-width="1.5" stroke-linecap="round" stroke-linejoin="round"/>
<path d="M12.457 5.91113V9.91113H10.7427" stroke="#3800F1" stroke-width="1.5" stroke-linecap="round" stroke-linejoin="round"/>
<path d="M9.59985 12.1968C10.3708 12.9291 11.3936 13.3375 12.457 13.3375C13.5204 13.3375 14.5431 12.9291 15.3141 12.1968" stroke="#3800F1" stroke-width="1.5" stroke-linecap="round" stroke-linejoin="round"/>
<path d="M9.02839 6.19667C8.8706 6.19667 8.74268 6.06875 8.74268 5.91096C8.74268 5.75316 8.8706 5.62524 9.02839 5.62524" stroke="#3800F1" stroke-width="1.5" stroke-linecap="round" stroke-linejoin="round"/>
<path d="M9.02844 6.19667C9.18624 6.19667 9.31416 6.06875 9.31416 5.91096C9.31416 5.75316 9.18624 5.62524 9.02844 5.62524" stroke="#3800F1" stroke-width="1.5" stroke-linecap="round" stroke-linejoin="round"/>
<path d="M15.8856 6.19667C15.7278 6.19667 15.5999 6.06875 15.5999 5.91096C15.5999 5.75316 15.7278 5.62524 15.8856 5.62524" stroke="#3800F1" stroke-width="1.5" stroke-linecap="round" stroke-linejoin="round"/>
<path d="M15.8856 6.19667C16.0434 6.19667 16.1713 6.06875 16.1713 5.91096C16.1713 5.75316 16.0434 5.62524 15.8856 5.62524" stroke="#3800F1" stroke-width="1.5" stroke-linecap="round" stroke-linejoin="round"/>
</g>
<defs>
<filter id="filter0_d_21_3706" x="0.457031" y="0.768066" width="24" height="24" filterUnits="userSpaceOnUse" color-interpolation-filters="sRGB">
<feFlood flood-opacity="0" result="BackgroundImageFix"/>
<feColorMatrix in="SourceAlpha" type="matrix" values="0 0 0 0 0 0 0 0 0 0 0 0 0 0 0 0 0 0 127 0" result="hardAlpha"/>
<feOffset dy="4"/>
<feGaussianBlur stdDeviation="2"/>
<feComposite in2="hardAlpha" operator="out"/>
<feColorMatrix type="matrix" values="0 0 0 0 0 0 0 0 0 0 0 0 0 0 0 0 0 0 0.25 0"/>
<feBlend mode="normal" in2="BackgroundImageFix" result="effect1_dropShadow_21_3706"/>
<feBlend mode="normal" in="SourceGraphic" in2="effect1_dropShadow_21_3706" result="shape"/>
</filter>
<clipPath id="clip0_21_3706">
<rect width="16" height="16" fill="white" transform="translate(4.45703 0.768066)"/>
</clipPath>
</defs>
</svg>
