<svg width="25" height="25" viewBox="0 0 25 25" fill="none" xmlns="http://www.w3.org/2000/svg">
<path d="M19.1598 10.0181C20.6798 10.0181 21.9098 11.2481 21.9098 12.7681C21.9098 14.2881 20.6798 15.5181 19.1598 15.5181C17.6398 15.5181 16.4098 14.2881 16.4098 12.7681C16.4098 11.2481 17.6398 10.0181 19.1598 10.0181ZM19.1598 14.0181C19.8498 14.0181 20.4098 13.4581 20.4098 12.7681C20.4098 12.0781 19.8498 11.5181 19.1598 11.5181C18.4698 11.5181 17.9098 12.0781 17.9098 12.7681C17.9098 13.4581 18.4698 14.0181 19.1598 14.0181Z" fill="#A9A9A9"/>
<path d="M5.15979 10.0181C6.67979 10.0181 7.90979 11.2481 7.90979 12.7681C7.90979 14.2881 6.67979 15.5181 5.15979 15.5181C3.63979 15.5181 2.40979 14.2881 2.40979 12.7681C2.40979 11.2481 3.63979 10.0181 5.15979 10.0181ZM5.15979 14.0181C5.84979 14.0181 6.40979 13.4581 6.40979 12.7681C6.40979 12.0781 5.84979 11.5181 5.15979 11.5181C4.46979 11.5181 3.90979 12.0781 3.90979 12.7681C3.90979 13.4581 4.46979 14.0181 5.15979 14.0181Z" fill="#A9A9A9"/>
<path d="M12.1598 10.0181C13.6798 10.0181 14.9098 11.2481 14.9098 12.7681C14.9098 14.2881 13.6798 15.5181 12.1598 15.5181C10.6398 15.5181 9.40979 14.2881 9.40979 12.7681C9.40979 11.2481 10.6398 10.0181 12.1598 10.0181ZM12.1598 14.0181C12.8498 14.0181 13.4098 13.4581 13.4098 12.7681C13.4098 12.0781 12.8498 11.5181 12.1598 11.5181C11.4698 11.5181 10.9098 12.0781 10.9098 12.7681C10.9098 13.4581 11.4698 14.0181 12.1598 14.0181Z" fill="#A9A9A9"/>
</svg>
